<?xml version="1.0" encoding="UTF-8"?>
<svg id="Capa_2" data-name="Capa 2" xmlns="http://www.w3.org/2000/svg" viewBox="0 0 420.44 97.27">
  <defs>
    <style>
      .cls-1 {
        fill: #fff;
      }
    </style>
  </defs>
  <g id="Capa_2-2" data-name="Capa 2">
    <g>
      <g>
        <path class="cls-1" d="M107.78,0l-8.29,67.51h-24.02c4.86,9.71,9.72,19.42,14.58,29.12h33.47l8.49-69.02h6.9l-8.49,69.02c9.8-4.87,19.61-9.74,29.41-14.62,2.23-18.14,4.46-36.27,6.69-54.41h6.9l-7.73,69.02c9.7-4.82,19.4-9.64,29.09-14.46,3.21-27.39,6.42-54.78,9.63-82.17h-96.63Z"/>
        <polyline class="cls-1" points="304.45 27.61 302.31 27.61 305.83 .09 307.97 .09"/>
        <polyline class="cls-1" points="299.86 27.61 297.72 27.61 301.24 .09 303.38 .09"/>
        <polyline class="cls-1" points="295.27 27.61 293.13 27.61 296.65 .09 298.79 .09"/>
        <path class="cls-1" d="M4.28,22.41c-1.43,9.6-2.86,19.2-4.28,28.8,7.59,15.14,15.18,30.28,22.77,45.42l4.21-34.51h69.02L103.67,0H7.04c-.3,2.41-.59,4.82-.89,7.24-.62,5.06-1.24,10.12-1.86,15.18ZM71.85,34.51H30.43l.83-6.9h41.41l-.83,6.9Z"/>
        <path class="cls-1" d="M284.62,69.02h-69l5.47-41.41h68.66l3.38-27.61h-82.76l-.95,7.74c-.05.03-.11.05-.16.08-1.6,11.91-3.52,26.22-5.12,38.13-1.68,12.56-3.59,26.91-5.26,39.46-7.93,3.95-15.86,7.9-23.78,11.84h106c1.17-9.41,2.34-18.83,3.51-28.24Z"/>
      </g>
      <g>
        <path class="cls-1" d="M312.2,76.8h-19.83l.97-7.93h27.76l-2.2,17.85h-19.83l-.24,1.98h19.83l-.97,7.93h-27.76l2.2-17.85h19.83l.24-1.98Z"/>
        <path class="cls-1" d="M326.45,68.87h27.76l-3.41,27.76h-27.76l3.41-27.76ZM333.41,76.8l-1.47,11.9h11.9l1.47-11.9h-11.9Z"/>
        <path class="cls-1" d="M378.42,76.8h-19.83l.97-7.93h27.76l-2.2,17.85h-19.83l-.24,1.98h19.83l-.97,7.93h-27.76l2.2-17.85h19.83l.24-1.98Z"/>
        <path class="cls-1" d="M420.44,68.87l-.97,7.93h-19.83l-.24,1.98h19.83l-2.2,17.85h-27.76l3.41-27.76h27.76ZM410.31,86.72h-11.9l-.24,1.98h11.9l.24-1.98Z"/>
      </g>
    </g>
  </g>
</svg>